<svg xmlns="http://www.w3.org/2000/svg" width="298.833" height="204.146" viewBox="0 0 298.833 204.146">
  <g id="Group_542" data-name="Group 542" transform="translate(928 428)">
    <g id="Group_541" data-name="Group 541" transform="translate(-928 -428)">
      <g id="Group_435" data-name="Group 435" transform="translate(4.783 26.968)">
        <g id="Group_379" data-name="Group 379" transform="translate(216.365 41.046)" opacity="0.6">
          <path id="Path_911" data-name="Path 911" d="M1997.567,822.245s40.291-97.4,66.309-85.474-41.46,59.284-52.29,88.01Z" transform="translate(-1997.567 -735.759)" fill="#b2c9c6"/>
        </g>
        <g id="Group_383" data-name="Group 383" transform="translate(222.923 95.052)">
          <g id="Group_380" data-name="Group 380">
            <path id="Path_912" data-name="Path 912" d="M2046.544,1184.7s41.96-56.318,60.059-43.774-39.55,34.751-51.136,51.552Z" transform="translate(-2046.544 -1139.1)" fill="#9bbcb6"/>
          </g>
          <g id="Group_382" data-name="Group 382" transform="translate(5.227 8.467)">
            <g id="Group_381" data-name="Group 381">
              <path id="Path_913" data-name="Path 913" d="M2086.049,1241.875c7.79-11.749,20.228-21.736,29.289-28.046a168.863,168.863,0,0,1,17.984-10.989l-.254-.5a169.541,169.541,0,0,0-18.051,11.03c-9.1,6.338-21.6,16.374-29.437,28.2Z" transform="translate(-2085.58 -1202.338)" fill="#74a1bd"/>
            </g>
          </g>
        </g>
        <g id="Group_412" data-name="Group 412" transform="translate(32.785)">
          <g id="Group_411" data-name="Group 411">
            <g id="Group_384" data-name="Group 384" transform="translate(25.474 17.206)">
              <path id="Path_914" data-name="Path 914" d="M819.868,561.294c-1.913.764-2.725.383-3.024-.366s.027-1.585,1.94-2.349a9.269,9.269,0,0,1,5.711-.707S823.4,559.882,819.868,561.294Z" transform="translate(-816.747 -557.703)" fill="#b2c9c6"/>
            </g>
            <g id="Group_385" data-name="Group 385" transform="translate(23.217 29.244)">
              <path id="Path_915" data-name="Path 915" d="M803.175,652.349c-1.563,1.342-2.454,1.245-2.98.632s-.488-1.508,1.075-2.85a9.269,9.269,0,0,1,5.175-2.517S806.063,649.869,803.175,652.349Z" transform="translate(-799.891 -647.614)" fill="#b2c9c6"/>
            </g>
            <g id="Group_410" data-name="Group 410">
              <g id="Group_387" data-name="Group 387" transform="translate(8.972 18.135)">
                <g id="Group_386" data-name="Group 386">
                  <path id="Path_916" data-name="Path 916" d="M705,614.712l-.379-.092a53.677,53.677,0,0,0,.729-14.985A75.591,75.591,0,0,0,693.5,564.856l.329-.209a75.976,75.976,0,0,1,11.907,34.977A54.029,54.029,0,0,1,705,614.712Z" transform="translate(-693.501 -564.647)" fill="#b2c9c6"/>
                </g>
              </g>
              <g id="Group_389" data-name="Group 389" transform="translate(17.028 8.794)">
                <g id="Group_388" data-name="Group 388">
                  <path id="Path_917" data-name="Path 917" d="M753.956,521l-.293-.257c9.341-10.64,6.968-25.644,6.943-25.794l.385-.064C761.016,495.034,763.422,510.216,753.956,521Z" transform="translate(-753.663 -494.882)" fill="#b2c9c6"/>
                </g>
              </g>
              <g id="Group_391" data-name="Group 391" transform="translate(5.861 24.454)">
                <g id="Group_390" data-name="Group 390">
                  <path id="Path_918" data-name="Path 918" d="M676.869,615.155a13.807,13.807,0,0,1-6.606-3.033l.264-.287a13.088,13.088,0,0,0,8.188,3.061l0,.39A11.451,11.451,0,0,1,676.869,615.155Z" transform="translate(-670.263 -611.835)" fill="#b2c9c6"/>
                </g>
              </g>
              <g id="Group_393" data-name="Group 393" transform="translate(3.522 44.177)">
                <g id="Group_392" data-name="Group 392">
                  <path id="Path_919" data-name="Path 919" d="M670.411,774.381a26.48,26.48,0,0,1-17.326-14.373,5.711,5.711,0,0,0-.291-.547.128.128,0,0,0,.037.026l.177-.347c.1.052.156.155.425.693A26.106,26.106,0,0,0,670.512,774Z" transform="translate(-652.794 -759.141)" fill="#b2c9c6"/>
                </g>
              </g>
              <g id="Group_395" data-name="Group 395" transform="translate(10.092 40.442)">
                <g id="Group_394" data-name="Group 394">
                  <path id="Path_920" data-name="Path 920" d="M702.346,744.365l-.357-.157c2.135-4.842-.1-12.779-.126-12.858l.375-.108a32.385,32.385,0,0,1,.886,4.665C703.4,738.328,703.494,741.761,702.346,744.365Z" transform="translate(-701.863 -731.242)" fill="#b2c9c6"/>
                </g>
              </g>
              <g id="Group_397" data-name="Group 397" transform="translate(3.156 11.274)">
                <g id="Group_396" data-name="Group 396">
                  <path id="Path_921" data-name="Path 921" d="M655.945,518.285c1.76,2.15,1.777,3.2,1.152,3.715s-1.655.287-3.414-1.863c-3.205-3.916-3.623-6.734-3.623-6.734S652.693,514.313,655.945,518.285Z" transform="translate(-650.059 -513.403)" fill="#b2c9c6"/>
                </g>
              </g>
              <g id="Group_399" data-name="Group 399" transform="translate(0 20.771)">
                <g id="Group_398" data-name="Group 398">
                  <path id="Path_922" data-name="Path 922" d="M633.575,587.212c2.326,1.519,2.66,2.519,2.218,3.195s-1.491.772-3.817-.747c-4.237-2.767-5.485-5.328-5.485-5.328S629.276,584.405,633.575,587.212Z" transform="translate(-626.491 -584.332)" fill="#b2c9c6"/>
                </g>
              </g>
              <g id="Group_401" data-name="Group 401" transform="translate(8.003 34.662)">
                <g id="Group_400" data-name="Group 400">
                  <path id="Path_923" data-name="Path 923" d="M689.692,692.885c.658,1.952.233,2.742-.532,3s-1.581-.114-2.239-2.066a9.269,9.269,0,0,1-.392-5.742S688.477,689.277,689.692,692.885Z" transform="translate(-686.264 -688.077)" fill="#b2c9c6"/>
                </g>
              </g>
              <g id="Group_403" data-name="Group 403" transform="translate(14.384 16.8)">
                <g id="Group_402" data-name="Group 402">
                  <path id="Path_924" data-name="Path 924" d="M736.88,560.108c.163,2.053-.441,2.716-1.246,2.78s-1.506-.5-1.669-2.549a9.27,9.27,0,0,1,1.017-5.664S736.579,556.313,736.88,560.108Z" transform="translate(-733.922 -554.675)" fill="#b2c9c6"/>
                </g>
              </g>
              <g id="Group_405" data-name="Group 405" transform="translate(12.971 46.551)">
                <g id="Group_404" data-name="Group 404">
                  <path id="Path_925" data-name="Path 925" d="M726.378,782.618c-.421,2.016-1.187,2.483-1.977,2.318s-1.306-.9-.885-2.915a9.269,9.269,0,0,1,2.568-5.15S727.155,778.891,726.378,782.618Z" transform="translate(-723.365 -776.871)" fill="#b2c9c6"/>
                </g>
              </g>
              <g id="Group_407" data-name="Group 407" transform="translate(1.467 40.945)">
                <g id="Group_406" data-name="Group 406">
                  <path id="Path_926" data-name="Path 926" d="M641.589,739.025c1.06,1.766.815,2.628.122,3.044s-1.569.227-2.629-1.539a9.269,9.269,0,0,1-1.612-5.524S639.629,735.761,641.589,739.025Z" transform="translate(-637.45 -735.005)" fill="#b2c9c6"/>
                </g>
              </g>
              <g id="Group_409" data-name="Group 409" transform="translate(22.403)">
                <g id="Group_408" data-name="Group 408">
                  <path id="Path_927" data-name="Path 927" d="M796.813,436.558c.234,2.768-.349,3.646-1.153,3.715s-1.526-.7-1.76-3.468c-.426-5.042.824-7.6.824-7.6S796.38,431.442,796.813,436.558Z" transform="translate(-793.81 -429.202)" fill="#b2c9c6"/>
                </g>
              </g>
            </g>
          </g>
        </g>
        <g id="Group_413" data-name="Group 413" transform="translate(51.121 54.599)">
          <path id="Path_928" data-name="Path 928" d="M808.877,910.268s-18.627-78.837-39.829-72.979,24.187,50.062,28.882,73.184Z" transform="translate(-763.438 -836.978)" fill="#b2c9c6"/>
        </g>
        <g id="Group_417" data-name="Group 417" transform="translate(17.834 48.985)">
          <g id="Group_414" data-name="Group 414">
            <path id="Path_929" data-name="Path 929" d="M578.1,859.016S543.467,785.929,520.192,796s36.139,43.874,45.419,65.467Z" transform="translate(-514.826 -795.045)" fill="#9bbcb6"/>
          </g>
          <g id="Group_416" data-name="Group 416" transform="translate(11.755 10.117)">
            <g id="Group_415" data-name="Group 415">
              <path id="Path_930" data-name="Path 930" d="M647.163,925.893c-6.138-15.029-17.922-29.121-26.727-38.3a194.489,194.489,0,0,0-17.82-16.478l.4-.51A195.179,195.179,0,0,1,620.9,887.147c8.844,9.216,20.683,23.376,26.859,38.5Z" transform="translate(-602.616 -870.608)" fill="#74a1bd"/>
            </g>
          </g>
        </g>
        <g id="Group_431" data-name="Group 431" transform="translate(0 86.055)">
          <g id="Group_419" data-name="Group 419">
            <g id="Group_418" data-name="Group 418">
              <path id="Path_931" data-name="Path 931" d="M459.394,1140.593c-7.908-1.977-17.217-3.966-26.779-5.891a13.639,13.639,0,0,1-.935-3.23c-4.541-7.5-3.716-6.352-17.639-7.05-9.986-.505-9.17-9.215-11.838-16.269-.048-.129-.1-.257-.148-.385a12.276,12.276,0,0,0-5.5-6.579,40.222,40.222,0,0,1-8.54-6.323q-.312-.3-.614-.616c-4.914-5.061-7.624-11.1-4.306-15.932.078-.115.159-.229.245-.34a11.566,11.566,0,0,1,2.3-2.257c9.862-7.412,16.967-2.337,25.709,1.162,4.834,1.934,13.451-2.8,21.175-4.221l.332-.059c6.113-1.049,11.62.086,14.169,8.413,0,0,0,0,0,0,.052.169.1.337.156.5,5.754,18.369,11.782,13.618,24.433,19.682,2.353,1.129,4.444,2.261,5.617,3.92C488.167,1120.578,475.025,1135.471,459.394,1140.593Z" transform="translate(-381.635 -1071.907)" fill="#cfd3a3"/>
            </g>
          </g>
          <g id="Group_430" data-name="Group 430" transform="translate(1.338 0.655)">
            <g id="Group_421" data-name="Group 421" transform="translate(0 5.375)">
              <g id="Group_420" data-name="Group 420">
                <path id="Path_932" data-name="Path 932" d="M472.832,1164.054l.618-.506c-.223-.272-23.009-27.49-81.572-46.607l-.248.76C449.973,1136.746,472.61,1163.783,472.832,1164.054Z" transform="translate(-391.63 -1116.941)" fill="#c4c695"/>
              </g>
            </g>
            <g id="Group_423" data-name="Group 423" transform="translate(51.015 8.253)">
              <g id="Group_422" data-name="Group 422">
                <path id="Path_933" data-name="Path 933" d="M772.981,1148.862c9.885-4.662,12.925-9.808,13.05-10.025l-.693-.4c-.029.051-3.066,5.158-12.7,9.7Z" transform="translate(-772.64 -1138.439)" fill="#c4c695"/>
              </g>
            </g>
            <g id="Group_425" data-name="Group 425" transform="translate(46.974)">
              <g id="Group_424" data-name="Group 424">
                <path id="Path_934" data-name="Path 934" d="M743.007,1103.328c3.344-3.195,4.806-8.808,4.229-16.232a53.384,53.384,0,0,0-1.879-10.3l-.763.235c.057.183,5.549,18.369-2.14,25.715Z" transform="translate(-742.455 -1076.8)" fill="#c4c695"/>
              </g>
            </g>
            <g id="Group_427" data-name="Group 427" transform="translate(4.303 18.964)">
              <g id="Group_426" data-name="Group 426">
                <path id="Path_935" data-name="Path 935" d="M451.869,1220c1.159-.5,1.811-.849,1.84-.866l-.386-.7c-.137.076-13.873,7.5-29.3,2.345l-.253.758C436.2,1225.684,447.552,1221.845,451.869,1220Z" transform="translate(-423.768 -1218.43)" fill="#c4c695"/>
              </g>
            </g>
            <g id="Group_429" data-name="Group 429" transform="translate(19.017 21.865)">
              <g id="Group_428" data-name="Group 428">
                <path id="Path_936" data-name="Path 936" d="M534.076,1254.163a18.853,18.853,0,0,0,7.965-9.11,13.962,13.962,0,0,0,1.077-4.95l-.8.015c0,.08.03,8.062-8.66,13.364Z" transform="translate(-533.659 -1240.103)" fill="#c4c695"/>
              </g>
            </g>
          </g>
        </g>
        <g id="Group_432" data-name="Group 432" transform="translate(257.497 33.64)">
          <path id="Path_937" data-name="Path 937" d="M2307.215,682.546c1.486-2.216,2.632-2.4,3.5-1.82s1.131,1.713-.355,3.929c-2.707,4.036-5.587,4.932-5.587,4.932S2304.469,686.641,2307.215,682.546Z" transform="translate(-2304.762 -680.443)" fill="#b2c9c6"/>
        </g>
        <g id="Group_433" data-name="Group 433" transform="translate(282.719 112.806)">
          <path id="Path_938" data-name="Path 938" d="M2500.682,1271.713c2.832-.152,3.723.7,3.782,1.813s-.734,2.055-3.567,2.207c-5.159.277-7.76-1.6-7.76-1.6S2495.447,1271.994,2500.682,1271.713Z" transform="translate(-2493.137 -1271.695)" fill="#b2c9c6"/>
        </g>
        <g id="Group_434" data-name="Group 434" transform="translate(1.937 60.283)">
          <path id="Path_939" data-name="Path 939" d="M398.185,883.787c-2.238-1.606-2.393-2.795-1.763-3.672s1.805-1.11,4.043.5c4.076,2.926,4.906,5.928,4.906,5.928S402.321,886.755,398.185,883.787Z" transform="translate(-396.101 -879.429)" fill="#b2c9c6"/>
        </g>
      </g>
      <g id="Group_447" data-name="Group 447" transform="translate(0 172.119)">
        <g id="Group_436" data-name="Group 436" transform="translate(0 1.152)">
          <path id="Path_940" data-name="Path 940" d="M632.11,1537.31c0,8.526-64.067,15.438-143.1,15.438s-143.1-6.912-143.1-15.438,64.067-15.438,143.1-15.438S632.11,1528.784,632.11,1537.31Z" transform="translate(-345.914 -1521.872)" fill="#bed5dc"/>
        </g>
        <g id="Group_437" data-name="Group 437" transform="translate(15.905 15.21)">
          <path id="Path_941" data-name="Path 941" d="M468.5,1630.444l-.1-.163a3.118,3.118,0,0,0,1.132-1.609,1.162,1.162,0,0,0-.186-.842.512.512,0,0,0-.439-.269h-.008c-.855.014-2.094,2-2.107,2.017l-.225.364.068-.436c0-.018.27-1.771-.274-2.295a.641.641,0,0,0-.718-.068,1.1,1.1,0,0,0-.667.673,4.253,4.253,0,0,0,.3,2.5l-.156.086a4.376,4.376,0,0,1-.307-2.665,1.281,1.281,0,0,1,.771-.784.787.787,0,0,1,.887.105c.453.436.427,1.519.376,2.1.4-.582,1.315-1.784,2.046-1.8a.679.679,0,0,1,.59.348,1.369,1.369,0,0,1,.217.993A3.255,3.255,0,0,1,468.5,1630.444Z" transform="translate(-464.702 -1626.872)" fill="#42428e"/>
        </g>
        <g id="Group_438" data-name="Group 438" transform="translate(242.644 19.056)">
          <path id="Path_942" data-name="Path 942" d="M2165.641,1659.7a1.53,1.53,0,0,0-.548-1.2,2.246,2.246,0,0,0-1.856-.036l-.4.164.284-.352c.008-.01.819-1.027.652-1.764a.9.9,0,0,0-.609-.624c-1.438-.567-2.615,2.724-2.672,2.888l0,.007-.194-.086,0-.005a1.655,1.655,0,0,0-.028-1.182,1.057,1.057,0,0,0-.934-.46.906.906,0,0,0-.882.336,1.84,1.84,0,0,0-.01,1.312l-.193.086a2.058,2.058,0,0,1,.034-1.533,1.085,1.085,0,0,1,1.062-.434,1.243,1.243,0,0,1,1.1.568,1.3,1.3,0,0,1,.158.551c.471-1.046,1.442-2.737,2.63-2.268a1.106,1.106,0,0,1,.742.788,2.464,2.464,0,0,1-.49,1.684,2.1,2.1,0,0,1,1.716.164,1.756,1.756,0,0,1,.643,1.374Z" transform="translate(-2158.111 -1655.594)" fill="#42428e"/>
        </g>
        <g id="Group_439" data-name="Group 439" transform="translate(173.275 15.368)">
          <path id="Path_943" data-name="Path 943" d="M1641.811,1631.312c-.073-.049-1.787-1.219-1.787-2.245a.937.937,0,0,1,.468-.793,1.151,1.151,0,0,1,1.056-.165c.868.295,1.5,1.533,1.662,1.893.884-.59,1.542-.734,1.956-.426.593.44.445,1.617.438,1.667l-.172-.029c0-.011.138-1.1-.363-1.475-.366-.271-.989-.109-1.85.484l-.083.057-.042-.1c-.007-.016-.675-1.573-1.6-1.886a1,1,0,0,0-.916.146.742.742,0,0,0-.384.626c0,.917,1.686,2.066,1.7,2.078Z" transform="translate(-1640.024 -1628.046)" fill="#42428e"/>
        </g>
        <g id="Group_440" data-name="Group 440" transform="translate(128.35 19.22)">
          <path id="Path_944" data-name="Path 944" d="M1306.494,1664.715a12.013,12.013,0,0,1-1.244-1.781c-.76-1.35-.941-2.422-.538-3.186.15-.285.332-.415.536-.39.7.089,1.46,2.126,1.855,3.34-.131-1.516-.28-4.512.458-5.525a.78.78,0,0,1,.583-.356.579.579,0,0,1,.537.264c.666.926.064,4.2-.267,5.729.247-.449.6-.95.954-1.007a.337.337,0,0,1,.38.2c.216.445-.082,1.58-.954,2.708l-.131-.128a3.291,3.291,0,0,0,.932-2.486.17.17,0,0,0-.2-.1c-.46.074-1,1.2-1.165,1.621l-.163-.066c.013-.052,1.285-5.229.481-6.348a.42.42,0,0,0-.392-.191.61.61,0,0,0-.459.284c-.935,1.283-.336,6.218-.33,6.268l-.169.043c-.31-1.1-1.268-3.965-1.968-4.054-.133-.017-.254.079-.367.3-.883,1.675,1.729,4.7,1.756,4.73Z" transform="translate(-1304.504 -1656.815)" fill="#42428e"/>
        </g>
        <g id="Group_443" data-name="Group 443" transform="translate(72.886 13.463)">
          <g id="Group_441" data-name="Group 441" transform="translate(0.096 1.101)">
            <path id="Path_945" data-name="Path 945" d="M892.864,1629.453s-2.584-2.961-1.695-4.647,2.39,3.622,2.39,3.622-.778-6.277.834-6.385,0,6.385,0,6.385.6-1.514,1.181-1.608.417,1.284-.625,2.633Z" transform="translate(-890.983 -1622.042)" fill="#bed5dc"/>
          </g>
          <g id="Group_442" data-name="Group 442">
            <path id="Path_946" data-name="Path 946" d="M892.431,1622.4c-.122-.139-2.97-3.439-1.936-5.4.163-.31.359-.453.583-.423.446.057.969.848,1.556,2.351.179.458.337.915.461,1.293-.143-1.643-.308-4.916.5-6.021a.847.847,0,0,1,.634-.387.634.634,0,0,1,.584.286c.724,1.007.07,4.564-.29,6.228.268-.488.649-1.032,1.037-1.095a.367.367,0,0,1,.413.217c.234.484-.089,1.717-1.037,2.944l-.143-.139c.932-1.206,1.187-2.344,1.014-2.7a.184.184,0,0,0-.22-.109c-.5.08-1.084,1.3-1.266,1.762l-.178-.072c0-.014.357-1.445.594-3.011.31-2.048.286-3.393-.071-3.889a.453.453,0,0,0-.426-.208.662.662,0,0,0-.5.309c-1.016,1.395-.365,6.759-.359,6.813l-.184.047c-.337-1.193-1.379-4.31-2.14-4.407-.146-.019-.275.086-.4.321-.96,1.821,1.88,5.109,1.909,5.142Z" transform="translate(-890.269 -1613.818)" fill="#42428e"/>
          </g>
        </g>
        <g id="Group_446" data-name="Group 446" transform="translate(198.396)">
          <g id="Group_444" data-name="Group 444" transform="translate(0.096 1.101)">
            <path id="Path_947" data-name="Path 947" d="M1830.241,1528.907s-2.584-2.96-1.695-4.647,2.389,3.622,2.389,3.622-.778-6.277.834-6.386,0,6.386,0,6.386.6-1.514,1.181-1.608.417,1.284-.625,2.633Z" transform="translate(-1828.36 -1521.496)" fill="#bed5dc"/>
          </g>
          <g id="Group_445" data-name="Group 445">
            <path id="Path_948" data-name="Path 948" d="M1829.807,1521.859c-.122-.14-2.97-3.439-1.936-5.4.163-.31.359-.453.583-.424.446.057.969.848,1.556,2.351.179.458.337.915.461,1.294-.142-1.643-.308-4.916.5-6.021a.847.847,0,0,1,.634-.387.634.634,0,0,1,.584.286c.724,1.007.07,4.564-.29,6.228.268-.488.649-1.032,1.037-1.095a.367.367,0,0,1,.412.217c.234.484-.089,1.717-1.037,2.944l-.143-.139c.932-1.206,1.187-2.344,1.014-2.7a.184.184,0,0,0-.22-.109c-.5.08-1.084,1.3-1.266,1.762l-.177-.071c0-.015.357-1.445.594-3.011.31-2.048.286-3.393-.071-3.889a.454.454,0,0,0-.426-.208.663.663,0,0,0-.5.309c-1.016,1.395-.365,6.759-.359,6.813l-.184.047c-.337-1.193-1.379-4.31-2.14-4.407-.146-.019-.276.087-.4.321-.96,1.821,1.88,5.109,1.908,5.142Z" transform="translate(-1827.646 -1513.272)" fill="#42428e"/>
          </g>
        </g>
      </g>
      <g id="Group_483" data-name="Group 483" transform="translate(92.407 18.245)">
        <g id="Group_450" data-name="Group 450" transform="translate(2.457 20.377)">
          <g id="Group_448" data-name="Group 448">
            <path id="Path_949" data-name="Path 949" d="M1134.015,658.908,1064,660.792c-5.058,0-9.592-3.463-9.592-8.521l3.053-126.855a9.185,9.185,0,0,1,9.174-9.174h67.38c5.058,0,12.271,2.782,12.271,10.374l-3.1,123.118a9.184,9.184,0,0,1-9.174,9.174Z" transform="translate(-1054.408 -516.242)" fill="#6f4975"/>
          </g>
          <g id="Group_449" data-name="Group 449" transform="translate(3.423 2.326)">
            <path id="Path_950" data-name="Path 950" d="M1156.182,533.611h-67.435a6.728,6.728,0,0,0-6.821,6.631L1079.971,661.5c-.067,8.3,4.4,7.981,8.163,7.981l67.955-1.876c3.768,0,6.914-4.324,6.914-7.987l2.751-118.59c0-3.662-5.805-7.413-9.573-7.413Z" transform="translate(-1079.97 -533.611)" fill="#96b4e0"/>
          </g>
        </g>
        <g id="Group_457" data-name="Group 457">
          <g id="Group_453" data-name="Group 453">
            <g id="Group_451" data-name="Group 451">
              <path id="Path_951" data-name="Path 951" d="M1089.784,387.906c0-14.116-12.548-23.847-26.528-23.847-20.245,0-27.2,11.443-27.2,25.559s16.044,24.113,30.023,24.113S1089.784,402.022,1089.784,387.906Z" transform="translate(-1036.058 -364.059)" fill="#cfd3a3"/>
            </g>
            <g id="Group_452" data-name="Group 452" transform="translate(41.717 36.241)">
              <path id="Path_952" data-name="Path 952" d="M1364.056,644.992s-8.849-1.379-9.481-10.263l-6.953,5.132S1350.94,648.024,1364.056,644.992Z" transform="translate(-1347.622 -634.729)" fill="#cfd3a3"/>
            </g>
          </g>
          <g id="Group_454" data-name="Group 454" transform="translate(0.211 2.654)">
            <path id="Path_953" data-name="Path 953" d="M1067.846,433.935a35.482,35.482,0,0,1-20.368-6.8c-6.35-4.7-9.847-10.917-9.847-17.5,0-7.723,2.038-13.847,6.057-18.2,4.622-5.008,11.8-7.547,21.331-7.547a28.507,28.507,0,0,1,18.631,6.676,22.627,22.627,0,0,1,8.088,17.362,28.044,28.044,0,0,1-4.44,15.433c2.1,5.935,8.637,7.025,8.7,7.035l.973.153-.959.222c-3.994.923-9.608,1.351-13.777-1.809A22.727,22.727,0,0,1,1067.846,433.935Zm-2.825-49.672c-9.421,0-16.5,2.5-21.051,7.425-3.952,4.282-5.956,10.319-5.956,17.944,0,6.462,3.442,12.569,9.692,17.2a35.087,35.087,0,0,0,20.141,6.726,22.345,22.345,0,0,0,14.27-4.991l.118-.1.12.094c3.786,2.951,8.874,2.785,12.747,2.009-1.905-.523-6.507-2.267-8.192-7.182l-.03-.089.052-.078a27.645,27.645,0,0,0,4.428-15.3,22.251,22.251,0,0,0-7.955-17.072A28.125,28.125,0,0,0,1065.021,384.263Z" transform="translate(-1037.632 -383.882)" fill="#2f1a31"/>
          </g>
          <g id="Group_455" data-name="Group 455" transform="translate(17.278 25.679)">
            <path id="Path_954" data-name="Path 954" d="M1186.174,557.876h-19.894a1.359,1.359,0,0,1-1.17-.89c-.119-.89.731-1.145,1.169-1.145l19.9.443a.8.8,0,0,1,.8.8h0A.8.8,0,0,1,1186.174,557.876Z" transform="translate(-1165.098 -555.841)" fill="#fff"/>
          </g>
          <g id="Group_456" data-name="Group 456" transform="translate(19.959 22.341)">
            <path id="Path_955" data-name="Path 955" d="M1201.032,532.546h-15.016a1.038,1.038,0,0,1-.883-.715.82.82,0,0,1,.882-.92l15.017.356a.623.623,0,0,1,.6.64h0A.623.623,0,0,1,1201.032,532.546Z" transform="translate(-1185.125 -530.911)" fill="#fff"/>
          </g>
        </g>
        <g id="Group_465" data-name="Group 465" transform="translate(41.466 53.988)">
          <g id="Group_463" data-name="Group 463" transform="translate(1.404)">
            <g id="Group_458" data-name="Group 458" transform="translate(4.425)">
              <path id="Path_956" data-name="Path 956" d="M1389.274,791.12c0-14.116,12.548-23.847,26.528-23.847,20.245,0,27.2,11.443,27.2,25.559s-16.044,24.113-30.023,24.113S1389.274,805.236,1389.274,791.12Z" transform="translate(-1389.274 -767.273)" fill="#fafafa"/>
            </g>
            <g id="Group_459" data-name="Group 459" transform="translate(19.91 26.328)">
              <path id="Path_957" data-name="Path 957" d="M1526.007,965.939h-19.894a1.359,1.359,0,0,1-1.17-.89c-.119-.89.731-1.145,1.169-1.145l19.9.443a.8.8,0,0,1,.8.8h0A.8.8,0,0,1,1526.007,965.939Z" transform="translate(-1504.931 -963.904)" fill="#6f4975"/>
            </g>
            <g id="Group_460" data-name="Group 460" transform="translate(20.357 29.776)">
              <path id="Path_958" data-name="Path 958" d="M1527.266,991.689H1509.33a1.253,1.253,0,0,1-1.055-.89,1,1,0,0,1,1.054-1.145l17.937.443a.762.762,0,0,1,.718.8h0A.762.762,0,0,1,1527.266,991.689Z" transform="translate(-1508.265 -989.654)" fill="#6f4975"/>
            </g>
            <g id="Group_461" data-name="Group 461" transform="translate(22.592 22.99)">
              <path id="Path_959" data-name="Path 959" d="M1540.866,940.61H1525.85a1.037,1.037,0,0,1-.883-.715.82.82,0,0,1,.882-.92l15.017.356a.623.623,0,0,1,.6.64h0A.623.623,0,0,1,1540.866,940.61Z" transform="translate(-1524.959 -938.975)" fill="#6f4975"/>
            </g>
            <g id="Group_462" data-name="Group 462" transform="translate(0 36.241)">
              <path id="Path_960" data-name="Path 960" d="M1356.229,1048.2s8.849-1.38,9.481-10.263l6.953,5.132S1369.345,1051.236,1356.229,1048.2Z" transform="translate(-1356.229 -1037.941)" fill="#fafafa"/>
            </g>
          </g>
          <g id="Group_464" data-name="Group 464" transform="translate(0 2.654)">
            <path id="Path_961" data-name="Path 961" d="M1374.875,837.15a22.728,22.728,0,0,1-14.393-4.981c-4.17,3.16-9.784,2.732-13.777,1.809l-.96-.222.973-.152c.066-.011,6.607-1.1,8.7-7.036a28.043,28.043,0,0,1-4.44-15.433,22.628,22.628,0,0,1,8.088-17.362A28.507,28.507,0,0,1,1377.7,787.1c9.532,0,16.709,2.539,21.331,7.547,4.02,4.355,6.057,10.479,6.057,18.2,0,6.586-3.5,12.8-9.847,17.5A35.481,35.481,0,0,1,1374.875,837.15Zm-14.388-5.468.118.1a22.346,22.346,0,0,0,14.27,4.991,35.087,35.087,0,0,0,20.14-6.726c6.25-4.628,9.692-10.735,9.692-17.2,0-7.624-2-13.661-5.956-17.944-4.547-4.927-11.63-7.424-21.051-7.424a28.126,28.126,0,0,0-18.382,6.584,22.251,22.251,0,0,0-7.955,17.073,27.645,27.645,0,0,0,4.428,15.3l.052.078-.03.089c-1.686,4.914-6.287,6.658-8.192,7.181,3.873.775,8.961.942,12.747-2.009Z" transform="translate(-1345.745 -787.097)" fill="#2f1a31"/>
          </g>
        </g>
        <g id="Group_473" data-name="Group 473" transform="translate(18.318 109.274)">
          <g id="Group_468" data-name="Group 468">
            <g id="Group_466" data-name="Group 466">
              <path id="Path_962" data-name="Path 962" d="M1212.558,1197.8c0-10.428-9.27-17.618-19.6-17.618-14.956,0-20.093,8.454-20.093,18.882s11.852,17.814,22.18,17.814S1212.558,1208.225,1212.558,1197.8Z" transform="translate(-1172.867 -1180.179)" fill="#cfd3a3"/>
            </g>
            <g id="Group_467" data-name="Group 467" transform="translate(30.819 26.774)">
              <path id="Path_963" data-name="Path 963" d="M1415.179,1387.723s-6.537-1.019-7-7.582l-5.136,3.791S1405.49,1389.963,1415.179,1387.723Z" transform="translate(-1403.038 -1380.141)" fill="#cfd3a3"/>
            </g>
          </g>
          <g id="Group_469" data-name="Group 469" transform="translate(0.106 1.911)">
            <path id="Path_964" data-name="Path 964" d="M1196.027,1231.529a26.264,26.264,0,0,1-15.076-5.034c-4.7-3.483-7.294-8.089-7.294-12.971,0-5.718,1.51-10.254,4.488-13.481,3.425-3.71,8.739-5.592,15.8-5.592a21.111,21.111,0,0,1,13.8,4.944,16.766,16.766,0,0,1,5.992,12.864,20.771,20.771,0,0,1-3.275,11.408c1.549,4.34,6.333,5.134,6.382,5.142l.975.152-.962.222c-2.95.682-7.1,1-10.188-1.322A16.84,16.84,0,0,1,1196.027,1231.529Zm-2.087-36.7c-16.449,0-19.9,10.164-19.9,18.691,0,4.758,2.536,9.255,7.14,12.664a25.869,25.869,0,0,0,14.849,4.959,16.459,16.459,0,0,0,10.511-3.676l.118-.1.12.093c2.716,2.118,6.35,2.05,9.174,1.515a8.671,8.671,0,0,1-5.887-5.28l-.03-.089.052-.078a20.376,20.376,0,0,0,3.263-11.277,16.391,16.391,0,0,0-5.86-12.575A20.729,20.729,0,0,0,1193.94,1194.833Z" transform="translate(-1173.656 -1194.452)" fill="#2f1a31"/>
          </g>
          <g id="Group_470" data-name="Group 470" transform="translate(9.224 17.061)">
            <path id="Path_965" data-name="Path 965" d="M1262.834,1309.636H1242.94a1.359,1.359,0,0,1-1.17-.89c-.119-.89.73-1.145,1.168-1.145l19.9.443a.8.8,0,0,1,.8.8h0A.8.8,0,0,1,1262.834,1309.636Z" transform="translate(-1241.759 -1307.601)" fill="#fff"/>
          </g>
          <g id="Group_471" data-name="Group 471" transform="translate(11.906 13.723)">
            <path id="Path_966" data-name="Path 966" d="M1277.692,1284.306h-15.016a1.038,1.038,0,0,1-.883-.715.82.82,0,0,1,.882-.92l15.017.356a.623.623,0,0,1,.6.64h0A.623.623,0,0,1,1277.692,1284.306Z" transform="translate(-1261.784 -1282.671)" fill="#fff"/>
          </g>
          <g id="Group_472" data-name="Group 472" transform="translate(11.906 21.227)">
            <path id="Path_967" data-name="Path 967" d="M1277.692,1340.347h-15.016a1.038,1.038,0,0,1-.883-.715.82.82,0,0,1,.882-.92l15.017.356a.623.623,0,0,1,.6.639h0A.623.623,0,0,1,1277.692,1340.347Z" transform="translate(-1261.784 -1338.712)" fill="#fff"/>
          </g>
        </g>
        <g id="Group_476" data-name="Group 476" transform="translate(63.483 125.667)">
          <g id="Group_474" data-name="Group 474" transform="translate(6.12)">
            <path id="Path_968" data-name="Path 968" d="M1564.264,1306.793a4.187,4.187,0,1,0-4.187,4.187A4.187,4.187,0,0,0,1564.264,1306.793Z" transform="translate(-1555.89 -1302.606)" fill="#fafafa"/>
          </g>
          <g id="Group_475" data-name="Group 475" transform="translate(0 10.024)">
            <path id="Path_969" data-name="Path 969" d="M1512.865,1386.775h15.252a2.675,2.675,0,0,0,2.375-3.908c-1.326-2.544-4.124-5.393-10-5.393s-8.675,2.849-10,5.393A2.675,2.675,0,0,0,1512.865,1386.775Z" transform="translate(-1510.184 -1377.474)" fill="#6f4975"/>
          </g>
        </g>
        <g id="Group_479" data-name="Group 479" transform="translate(22.296 77.766)">
          <g id="Group_477" data-name="Group 477" transform="translate(5.918)">
            <path id="Path_970" data-name="Path 970" d="M1254.87,948.909a4.049,4.049,0,1,0-4.049,4.049A4.049,4.049,0,0,0,1254.87,948.909Z" transform="translate(-1246.772 -944.86)" fill="#6f4975"/>
          </g>
          <g id="Group_478" data-name="Group 478" transform="translate(0 9.693)">
            <path id="Path_971" data-name="Path 971" d="M1205.168,1026.248h14.748a2.586,2.586,0,0,0,2.3-3.779c-1.282-2.46-3.987-5.215-9.671-5.215s-8.389,2.755-9.671,5.215A2.586,2.586,0,0,0,1205.168,1026.248Z" transform="translate(-1202.576 -1017.254)" fill="#6f4975"/>
          </g>
        </g>
        <g id="Group_482" data-name="Group 482" transform="translate(63.947 31.701)">
          <g id="Group_480" data-name="Group 480" transform="translate(5.396)">
            <path id="Path_972" data-name="Path 972" d="M1561.335,604.515a3.692,3.692,0,1,0-3.692,3.692A3.692,3.692,0,0,0,1561.335,604.515Z" transform="translate(-1553.951 -600.823)" fill="#fafafa"/>
          </g>
          <g id="Group_481" data-name="Group 481" transform="translate(0 8.839)">
            <path id="Path_973" data-name="Path 973" d="M1516.013,675.04h13.449a2.359,2.359,0,0,0,2.094-3.446c-1.169-2.243-3.636-4.755-8.819-4.755s-7.649,2.512-8.819,4.755A2.359,2.359,0,0,0,1516.013,675.04Z" transform="translate(-1513.649 -666.839)" fill="#fafafa"/>
          </g>
        </g>
      </g>
      <g id="Group_502" data-name="Group 502" transform="translate(35.964 128.02)">
        <path id="Path_974" data-name="Path 974" d="M880.425,1342.234c.5.9,5.564,8.736,4.5,16.4l-5.507-1.991-2.517-10.333Z" transform="translate(-841.773 -1321.037)" fill="#ffb27d"/>
        <path id="Path_975" data-name="Path 975" d="M687.316,1287.943s3.384-6.069,11.62-4.391,12.732,13.467,10.5,36.817c0,0-13.085-5.2-30.1-1.009C679.335,1319.36,682.135,1296.746,687.316,1287.943Z" transform="translate(-670.656 -1269.957)" fill="#ef8062"/>
        <path id="Path_976" data-name="Path 976" d="M692.025,1283.656l5.79,5.78s14.843,4.01,18.965,3.962a6.624,6.624,0,0,0,5.745-3.061,21.981,21.981,0,0,0-10.52-8,20.531,20.531,0,0,0-2.077-.617,21.2,21.2,0,0,0-3.678-.533A36.25,36.25,0,0,0,692.025,1283.656Z" transform="translate(-681.646 -1268.124)" fill="#ef8062"/>
        <path id="Path_977" data-name="Path 977" d="M690.135,1299.17c-.925,1.006.5,2.1,2.1,3.7s3.25,2.527,3.689,2.079-.5-2.1-2.1-3.7S690.559,1298.708,690.135,1299.17Z" transform="translate(-679.756 -1283.637)" fill="#331832"/>
        <path id="Path_978" data-name="Path 978" d="M692.8,1314.247a3.788,3.788,0,0,0-1.365-2.628,8.814,8.814,0,0,0-2.722-1.789.846.846,0,0,0-1.125.475l-.464,1.2,2.161,1.391Z" transform="translate(-677.4 -1292.911)" fill="#ffb27d"/>
        <path id="Path_979" data-name="Path 979" d="M640.141,1476.94s-17.861-9.679-24.263.88c-4.739,7.816,2.385,15.095,28.808,14.356,0,0,2.611-1.223,1.975-7.568C646.409,1482.094,640.141,1476.94,640.141,1476.94Z" transform="translate(-614.512 -1434.196)" fill="#73a0d1"/>
        <path id="Path_980" data-name="Path 980" d="M805.92,1466.569s23.788-9.744,28.495-3.653c5.409,7,.222,18.888-24.853,14.639l-3.056-3.318Z" transform="translate(-780.291 -1423.825)" fill="#73a0d1"/>
        <g id="Group_484" data-name="Group 484" transform="translate(14.074 43.792)">
          <path id="Path_981" data-name="Path 981" d="M735.755,1525.212l-.058-.081c2.774-1.979,2.028-7.063,1.96-7.49l-18.03-6.562.034-.094,18.085,6.582,0,.028C737.761,1517.65,738.689,1523.119,735.755,1525.212Z" transform="translate(-719.627 -1510.985)" fill="#020202"/>
        </g>
        <path id="Path_982" data-name="Path 982" d="M851.564,1573.456s4.384.178,6.443,1.188.96,3.475-3.222,3.409-3.864-.688-3.864-.688A10.939,10.939,0,0,0,851.564,1573.456Z" transform="translate(-819.263 -1521.299)" fill="#331832"/>
        <g id="Group_485" data-name="Group 485" transform="translate(8.162 17.655)">
          <path id="Path_983" data-name="Path 983" d="M694,1341.328a5.805,5.805,0,0,0,3.612-1.1,5.2,5.2,0,0,0,1.9-5.036l-1.747-1.016c-.087-.479-3.459,1.3-3.453,1.3-.015.005-1.609.466-7.136-2.358-3.847-1.966-5.786-4.756-5.928-8.53a9.179,9.179,0,0,1,1.461-5.135c.04-.092-1.859-2-1.8-2.19l-1.424-.723c.046-.163-1.369-.721-1.349-.768l-1.1.936a18.326,18.326,0,0,0-1.547,8.1c.155,4.122,1.856,9.81,9.086,13.5C688.513,1340.332,691.607,1341.328,694,1341.328Z" transform="translate(-675.472 -1315.775)" fill="#ffb27d"/>
        </g>
        <g id="Group_488" data-name="Group 488" transform="translate(22.266 32.337)">
          <path id="Path_984" data-name="Path 984" d="M817.75,1436.844h15.414a.749.749,0,0,0,.711-.509l3.2-9.566a.745.745,0,0,0-.711-.979H821.544a1.568,1.568,0,0,0-1.488,1.066l-3.017,9.01A.745.745,0,0,0,817.75,1436.844Z" transform="translate(-812.154 -1425.74)" fill="#764678"/>
          <path id="Path_985" data-name="Path 985" d="M824.975,1436.844h15.414a.749.749,0,0,0,.711-.509l3.2-9.566a.745.745,0,0,0-.711-.979H828.769a1.568,1.568,0,0,0-1.488,1.066l-3.017,9.01A.745.745,0,0,0,824.975,1436.844Z" transform="translate(-818.412 -1425.74)" fill="#764678"/>
          <path id="Path_986" data-name="Path 986" d="M899.21,1461.424c0-.363-.419-.511-.785-.511a1.047,1.047,0,0,0-.959.908c0,.549.433.621.8.621A1.21,1.21,0,0,0,899.21,1461.424Z" transform="translate(-881.846 -1456.161)" fill="#daebe8"/>
          <path id="Path_987" data-name="Path 987" d="M781.705,1498.254h21.089v1.352h-21.53a.456.456,0,0,1-.456-.456h0A.9.9,0,0,1,781.705,1498.254Z" transform="translate(-780.809 -1488.503)" fill="#764678"/>
          <g id="Group_486" data-name="Group 486" transform="translate(7.562)">
            <path id="Path_988" data-name="Path 988" d="M837.386,1430.312l-.1-.026a26.409,26.409,0,0,1,1.263-3.769,2.142,2.142,0,0,1,1.144-1.09l.027.1a2.088,2.088,0,0,0-1.083,1.042A27,27,0,0,0,837.386,1430.312Z" transform="translate(-837.289 -1425.427)" fill="#331832"/>
          </g>
          <g id="Group_487" data-name="Group 487" transform="translate(5.381 5.91)">
            <path id="Path_989" data-name="Path 989" d="M821,1473.459v-.1c.5,0,.63-.209.631-.211l1.2-3.58.095.032-1.2,3.588C821.711,1473.206,821.569,1473.459,821,1473.459Z" transform="translate(-820.998 -1469.568)" fill="#331832"/>
          </g>
        </g>
        <g id="Group_489" data-name="Group 489" transform="translate(11.409 32.349)">
          <path id="Path_990" data-name="Path 990" d="M701.142,1428.086a.668.668,0,0,1-.172-.024,1.79,1.79,0,0,1-.951-.867h0c-.391-.683-.4-1.39-.024-1.61a.541.541,0,0,1,.42-.041,1.791,1.791,0,0,1,.951.867c.391.683.4,1.39.024,1.61A.487.487,0,0,1,701.142,1428.086Zm-.949-.99a1.616,1.616,0,0,0,.829.773.344.344,0,0,0,.267-.02c.272-.158.227-.771-.1-1.338a1.617,1.617,0,0,0-.829-.773.344.344,0,0,0-.267.02c-.272.158-.227.771.1,1.338Z" transform="translate(-699.719 -1425.52)" fill="#ec865c"/>
        </g>
        <path id="Path_991" data-name="Path 991" d="M797.143,1234.871a2.878,2.878,0,0,0,2.364-.819l1.8-2.121.525-.617,3.086-3.63-1.621,4.245-.973,2.548-.308.806c-.209.547.067.8.262,1.443.079.259.611,1.856-.775,1.866-1.726.012-3.909-1.994-4.389-3.726A.118.118,0,0,0,797.143,1234.871Z" transform="translate(-772.667 -1221.824)" fill="#ffb27d"/>
        <path id="Path_992" data-name="Path 992" d="M811.447,1206.205s-3.4-3.266-1.437-6.022,2.45,4.423,2.45,4.423l-.548,1.66Z" transform="translate(-783.306 -1197.46)" fill="#331832"/>
        <path id="Path_993" data-name="Path 993" d="M828.133,1255.286c-.006.024-.012.049-.017.073a2.91,2.91,0,0,0,1.005,2.55l.012,0,.973-2.548a2.39,2.39,0,0,0-1.465-.615A.632.632,0,0,0,828.133,1255.286Z" transform="translate(-799.474 -1245.252)" fill="#331832"/>
        <ellipse id="Ellipse_16" data-name="Ellipse 16" cx="4.825" cy="3.969" rx="4.825" ry="3.969" transform="translate(26.909 10.636) rotate(-73.933)" fill="#ffb27d"/>
        <path id="Path_994" data-name="Path 994" d="M816.227,1189.487a1.81,1.81,0,0,0,1.989.122c.907-.665,1.548-1.3,3.579-.274s4.254.563,4.664-.588-.557-2.032-1.832-1.975.27-.642-.618-1.852-3.138.036-4.254-.563-5.09-1.121-5.805,2.285Z" transform="translate(-787.246 -1183.919)" fill="#331832"/>
        <path id="Path_995" data-name="Path 995" d="M823.614,1222.377a.816.816,0,0,0,1.117.3.834.834,0,0,0,.173-1.155.817.817,0,0,0-1.117-.3A.834.834,0,0,0,823.614,1222.377Z" transform="translate(-795.483 -1216.127)" fill="#ffb27d"/>
        <g id="Group_490" data-name="Group 490" transform="translate(34.905 3.231)">
          <path id="Path_996" data-name="Path 996" d="M877.269,1209.248a4.238,4.238,0,0,1-2.064-1.089l.1-.11c.013.012,1.365,1.228,2.146,1.029.3-.076.47-.218.443-.371s-.239-.283-.541-.253a1.684,1.684,0,0,1-1.034-.166l.08-.125a1.576,1.576,0,0,0,.94.144c.405-.042.665.162.7.375.033.185-.1.425-.553.541A.886.886,0,0,1,877.269,1209.248Z" transform="translate(-875.205 -1208.049)" fill="#fff"/>
        </g>
        <g id="Group_491" data-name="Group 491" transform="translate(30.011 0.336)">
          <path id="Path_997" data-name="Path 997" d="M842.1,1187.674a2.328,2.328,0,0,1-.851-.15,9.147,9.147,0,0,1-.957-.458,2.51,2.51,0,0,0-1.614-.462l-.028-.146a2.608,2.608,0,0,1,1.712.476,9,9,0,0,0,.942.451,3.051,3.051,0,0,0,2.317-.244l.109.1A3.251,3.251,0,0,1,842.1,1187.674Z" transform="translate(-838.648 -1186.431)" fill="#fff"/>
        </g>
        <g id="Group_492" data-name="Group 492" transform="translate(27.58 1.7)">
          <path id="Path_998" data-name="Path 998" d="M820.65,1197.465a.168.168,0,0,1-.06-.01c-.05-.019-.127-.078-.078-.259l.011-.023c.083-.119.515-.7.811-.517.038.024.118.1.039.256A1.215,1.215,0,0,1,820.65,1197.465Zm0-.219c-.013.057-.005.073-.005.074a.913.913,0,0,0,.459-.3c.144-.149.156-.226.151-.238C821.125,1196.7,820.822,1197.007,820.652,1197.246Z" transform="translate(-820.496 -1196.619)" fill="#fff"/>
        </g>
        <g id="Group_493" data-name="Group 493" transform="translate(31.756 6.935)">
          <path id="Path_999" data-name="Path 999" d="M852.748,1236a.08.08,0,0,0,.059-.041.082.082,0,0,0-.031-.11.864.864,0,0,0-1.062.1.082.082,0,0,0-.012.114.087.087,0,0,0,.113.012,1.363,1.363,0,0,1,.882-.083A.08.08,0,0,0,852.748,1236Z" transform="translate(-851.685 -1235.714)" fill="#080435"/>
        </g>
        <path id="Path_1000" data-name="Path 1000" d="M854.037,1241.881c-.03.191.057.364.194.386s.273-.115.3-.306-.057-.364-.194-.387S854.067,1241.689,854.037,1241.881Z" transform="translate(-821.961 -1233.853)" fill="#080435"/>
        <g id="Group_494" data-name="Group 494" transform="translate(34.865 7.783)">
          <path id="Path_1001" data-name="Path 1001" d="M875.664,1242.507a.058.058,0,0,0,.056-.019.1.1,0,0,0,.016-.113.562.562,0,0,0-.785-.255.1.1,0,0,0-.048.1.06.06,0,0,0,.076.048.838.838,0,0,1,.652.211A.053.053,0,0,0,875.664,1242.507Z" transform="translate(-874.902 -1242.047)" fill="#080435"/>
        </g>
        <path id="Path_1002" data-name="Path 1002" d="M872.64,1247.6a.316.316,0,0,0,.034.432c.119.073.3,0,.4-.166a.317.317,0,0,0-.034-.432C872.918,1247.364,872.74,1247.438,872.64,1247.6Z" transform="translate(-838.021 -1238.908)" fill="#080435"/>
        <g id="Group_497" data-name="Group 497" transform="translate(30.502 9.552)">
          <g id="Group_495" data-name="Group 495" transform="translate(0.164 0.185)">
            <path id="Path_1003" data-name="Path 1003" d="M845.2,1257.632a1.8,1.8,0,0,1-1.646-.908.056.056,0,1,1,.1-.056,1.82,1.82,0,0,0,2.007.8.056.056,0,0,1,.028.109A2.2,2.2,0,0,1,845.2,1257.632Z" transform="translate(-843.542 -1256.64)" fill="#020202"/>
          </g>
          <g id="Group_496" data-name="Group 496">
            <path id="Path_1004" data-name="Path 1004" d="M842.375,1255.727l-.018,0a.057.057,0,0,1-.036-.071.756.756,0,0,1,.37-.385.063.063,0,0,1,.082.015.051.051,0,0,1-.01.073l-.016.01a.639.639,0,0,0-.319.323A.056.056,0,0,1,842.375,1255.727Z" transform="translate(-842.319 -1255.259)" fill="#020202"/>
          </g>
        </g>
        <g id="Group_498" data-name="Group 498" transform="translate(36.696 21.989)">
          <rect id="Rectangle_139" data-name="Rectangle 139" width="0.247" height="2.912" transform="matrix(0.95, -0.312, 0.312, 0.95, 0, 0.077)" fill="#331832"/>
        </g>
        <g id="Group_499" data-name="Group 499" transform="translate(33.819 6.283)">
          <path id="Path_1005" data-name="Path 1005" d="M868.346,1235.991a1.06,1.06,0,0,1-.764-.318c-.678-.672-.646-2.229.071-3.47a2.513,2.513,0,0,1,1.657-1.348,1.072,1.072,0,0,1,.927.307c.678.672.646,2.228-.071,3.47a2.513,2.513,0,0,1-1.657,1.348A1.219,1.219,0,0,1,868.346,1235.991Zm1.126-4.98a1.058,1.058,0,0,0-.139.009,2.349,2.349,0,0,0-1.534,1.266c-.682,1.18-.726,2.646-.1,3.267a.908.908,0,0,0,.786.26,2.35,2.35,0,0,0,1.534-1.266c.682-1.18.726-2.645.1-3.267A.9.9,0,0,0,869.472,1231.011Z" transform="translate(-867.094 -1230.843)" fill="#fff"/>
        </g>
        <path id="Path_1006" data-name="Path 1006" d="M838.852,1218.429a2.921,2.921,0,0,0,.359,3.356c.779.619,1.881.119,2.462-1.116a2.921,2.921,0,0,0-.359-3.356C840.535,1216.694,839.433,1217.194,838.852,1218.429Z" transform="translate(-808.512 -1212.612)" fill="#fff" opacity="0.3"/>
        <path id="Path_1007" data-name="Path 1007" d="M868.317,1232.723c-.583,1.241-.5,2.747.176,3.363s1.7.11,2.287-1.131.5-2.747-.176-3.363S868.9,1231.482,868.317,1232.723Z" transform="translate(-833.995 -1224.981)" fill="#fff" opacity="0.3"/>
        <g id="Group_500" data-name="Group 500" transform="translate(29.932 4.115)">
          <path id="Path_1008" data-name="Path 1008" d="M839.7,1220.041a1.356,1.356,0,0,1-.846-.3,3.1,3.1,0,0,1-.423-3.609,2.482,2.482,0,0,1,1.558-1.442,1.358,1.358,0,0,1,1.185.259,3.1,3.1,0,0,1,.423,3.609A2.482,2.482,0,0,1,840.04,1220,1.465,1.465,0,0,1,839.7,1220.041Zm.626-5.223a1.3,1.3,0,0,0-.3.036,2.35,2.35,0,0,0-1.445,1.351,2.934,2.934,0,0,0,.375,3.4,1.2,1.2,0,0,0,1.043.228,2.35,2.35,0,0,0,1.445-1.351,2.934,2.934,0,0,0-.375-3.4A1.193,1.193,0,0,0,840.327,1214.818Z" transform="translate(-838.063 -1214.65)" fill="#fff"/>
        </g>
        <g id="Group_501" data-name="Group 501" transform="translate(33.098 7.457)">
          <path id="Path_1009" data-name="Path 1009" d="M863.028,1240.424a.156.156,0,0,1-.124-.061h0a1.384,1.384,0,0,0-1.047-.439.157.157,0,0,1-.153-.16.154.154,0,0,1,.16-.153,1.691,1.691,0,0,1,1.287.561.157.157,0,0,1-.124.252Z" transform="translate(-861.705 -1239.611)" fill="#fff"/>
        </g>
      </g>
      <g id="Group_506" data-name="Group 506" transform="translate(189.061 128.506)">
        <g id="Group_503" data-name="Group 503">
          <path id="Path_1010" data-name="Path 1010" d="M1770.991,1248.192s15.586,2.42,28.654,1.139,31.125-1.987,27.835-23.531.27-30.547-12.635-35.847-27.916-1.863-37.981,10.458S1743.22,1238.974,1770.991,1248.192Z" transform="translate(-1757.921 -1187.546)" fill="#cbf4ed"/>
        </g>
        <g id="Group_504" data-name="Group 504" transform="translate(40.985 18.276)">
          <path id="Path_1011" data-name="Path 1011" d="M2064.2,1334.616a.177.177,0,0,1-.022-.352,19.851,19.851,0,0,0,10.843-5.523,25.065,25.065,0,0,0,3.86-4.618.177.177,0,1,1,.3.182,25.451,25.451,0,0,1-3.919,4.692,20.2,20.2,0,0,1-11.04,5.617Z" transform="translate(-2064.021 -1324.038)" fill="#2f1a31"/>
        </g>
        <g id="Group_505" data-name="Group 505" transform="translate(48.401 18.859)">
          <path id="Path_1012" data-name="Path 1012" d="M2119.58,1335.6a.177.177,0,0,1-.158-.255,7.45,7.45,0,0,0,.7-4.736,6.189,6.189,0,0,0-.69-1.943.177.177,0,0,1,.3-.188,7.545,7.545,0,0,1,.009,7.024A.177.177,0,0,1,2119.58,1335.6Z" transform="translate(-2119.404 -1328.399)" fill="#2f1a31"/>
        </g>
      </g>
      <g id="Group_524" data-name="Group 524" transform="translate(161.724 0)">
        <path id="Path_1013" data-name="Path 1013" d="M1731.728,661.9a10.494,10.494,0,0,0,1.5,4.045c.72.9,2.708,2.684,1.295,3.278-1.129.475-3.3-1.638-4.008-2.164s-1.77-1.52-1.534-2.368a13.725,13.725,0,0,0,.328-3.964Z" transform="translate(-1705.494 -602.76)" fill="#331832"/>
        <path id="Path_1014" data-name="Path 1014" d="M1666.481,641.419a10.494,10.494,0,0,0,0,4.316c.363,1.095,1.606,3.458.074,3.523-1.224.052-2.527-2.684-3.006-3.422s-1.131-2.041-.615-2.754a13.723,13.723,0,0,0,1.685-3.6Z" transform="translate(-1648.156 -584.357)" fill="#331832"/>
        <g id="Group_507" data-name="Group 507" transform="translate(11.758 28.202)">
          <path id="Path_1015" data-name="Path 1015" d="M1648.906,469.157c14.653-9.775,13.93-18.338,11.9-21.686a18.117,18.117,0,0,0-11.816-8.336,31.72,31.72,0,0,0-4.192-.7,2.931,2.931,0,0,0-3.224,2.993l.131,4.987h-.011c2.445-.051,9.862.694,11.806,4.647.4.822-9.46,12.407-9.092,14.486C1644.824,467.9,1647.473,470.112,1648.906,469.157Z" transform="translate(-1641.572 -438.42)" fill="#366f90"/>
        </g>
        <g id="Group_508" data-name="Group 508" transform="translate(1.478 28.9)">
          <path id="Path_1016" data-name="Path 1016" d="M1588.094,475.134a2.919,2.919,0,0,0,2.93-3.089c-.221-3.74-.916-10.105-3.094-14.914a20.571,20.571,0,0,0-5.837-7.371,32.654,32.654,0,0,0-7.075-4.334,16.783,16.783,0,0,0-7.742-1.781l-2.46,3.627c.033.007-.69,3.659,4.51,6.915,2.869,1.8,8.636,2.895,11.009,7.538a29.815,29.815,0,0,1,2.556,10.781,2.815,2.815,0,0,0,2.8,2.616Z" transform="translate(-1564.799 -443.631)" fill="#366f90"/>
        </g>
        <path id="Path_1017" data-name="Path 1017" d="M1688.889,347.725a32.3,32.3,0,0,1,4.105,11.543c.717,4.561-7.584-.749-7.584-.749l-.369-9.529Z" transform="translate(-1667.462 -331.667)" fill="#ffb27d"/>
        <path id="Path_1018" data-name="Path 1018" d="M1565.312,308.964a6.859,6.859,0,0,1,7.609-2.727c5.307,1.208,7.469,6.628,7.849,19.644,0,0-3.187,5.64-17.685,4.54-1.606-.122-3.908-.334-3.123-2.939C1561.422,322.641,1562.835,312.983,1565.312,308.964Z" transform="translate(-1558.994 -295.534)" fill="#73a0d1"/>
        <path id="Path_1019" data-name="Path 1019" d="M1557.343,309.022l5.459,1.026s9.545,2.823,12.217,2.845a4.327,4.327,0,0,0,3.778-1.932,14.137,14.137,0,0,0-6.672-5.384,13.114,13.114,0,0,0-1.335-.431,9.817,9.817,0,0,0-2.374-.4C1559.406,304.645,1557.343,309.022,1557.343,309.022Z" transform="translate(-1556.863 -294.443)" fill="#73a0d1"/>
        <path id="Path_1020" data-name="Path 1020" d="M1557.289,334.674c-.118.43,1.026,1.148,2.556,1.6s2.865.476,2.983.046-1.026-1.148-2.556-1.6S1557.407,334.244,1557.289,334.674Z" transform="translate(-1556.809 -320.095)" fill="#331832"/>
        <g id="Group_509" data-name="Group 509" transform="translate(0 14.786)">
          <path id="Path_1021" data-name="Path 1021" d="M1555.183,350.139a13.593,13.593,0,0,0,11.8,5.832l-.517-3.894c-3.763-.686-6.648-3.135-7.185-5.2a16.757,16.757,0,0,1-.121-7.02.491.491,0,0,0-.186-.472,6.639,6.639,0,0,0-3.955-1.162.431.431,0,0,0-.425.321C1553.665,342.055,1553.1,346.879,1555.183,350.139Z" transform="translate(-1553.76 -338.224)" fill="#ffb27d"/>
        </g>
        <g id="Group_510" data-name="Group 510" transform="translate(2.894 25.85)">
          <path id="Path_1022" data-name="Path 1022" d="M1576.361,422.859a.706.706,0,0,1-.264-.054,1.2,1.2,0,0,1-.612-.649.939.939,0,0,1,.3-1.256.633.633,0,0,1,.494.008,1.194,1.194,0,0,1,.612.649.938.938,0,0,1-.3,1.256A.582.582,0,0,1,1576.361,422.859Zm-.35-1.912a.488.488,0,0,0-.193.039.849.849,0,0,0-.248,1.133,1.1,1.1,0,0,0,.561.6.541.541,0,0,0,.422.008.849.849,0,0,0,.248-1.133,1.1,1.1,0,0,0-.561-.6A.612.612,0,0,0,1576.011,420.947Z" transform="translate(-1575.377 -420.853)" fill="#e9845c"/>
        </g>
        <g id="Group_514" data-name="Group 514" transform="translate(12.381 27.914)">
          <path id="Path_1023" data-name="Path 1023" d="M1646.555,437s3.486-1.109,4.593-.584,2.127,2.032,1.371,1.852a8.079,8.079,0,0,1-1.658-.675s1.878,1.15,1.419,1.472-2.083-.693-2.083-.693,2.126,1.546,1.594,1.711-2.139-1.021-2.139-1.021,1.921,1.518,1.3,1.694-1.579-1.264-2.038-.942-1.63,1.805-2.683.639Z" transform="translate(-1646.228 -436.273)" fill="#ffb27d"/>
          <g id="Group_511" data-name="Group 511" transform="translate(3.767 0.954)">
            <path id="Path_1024" data-name="Path 1024" d="M1675.2,443.794s-.47-.389-.813-.293l-.025-.087c.389-.111.875.294.9.311Z" transform="translate(-1674.359 -443.395)" fill="#e9845c"/>
          </g>
          <g id="Group_512" data-name="Group 512" transform="translate(2.946 1.689)">
            <path id="Path_1025" data-name="Path 1025" d="M1669.223,449.33a1.532,1.532,0,0,0-.987-.35l-.007-.09a1.6,1.6,0,0,1,1.053.372Z" transform="translate(-1668.229 -448.887)" fill="#e9845c"/>
          </g>
          <g id="Group_513" data-name="Group 513" transform="translate(2.45 2.376)">
            <path id="Path_1026" data-name="Path 1026" d="M1665.47,454.466c-.006,0-.559-.466-.913-.331l-.032-.085c.4-.152.979.326,1,.347Z" transform="translate(-1664.525 -454.021)" fill="#e9845c"/>
          </g>
        </g>
        <g id="Group_517" data-name="Group 517" transform="translate(12.928 26.003)">
          <path id="Path_1027" data-name="Path 1027" d="M1677.125,430.283h11.189a.544.544,0,0,0,.516-.37l2.325-6.944a.541.541,0,0,0-.516-.711h-10.76a1.138,1.138,0,0,0-1.08.774l-2.19,6.54A.541.541,0,0,0,1677.125,430.283Z" transform="translate(-1673.064 -422.224)" fill="#331832"/>
          <path id="Path_1028" data-name="Path 1028" d="M1682.371,430.283h11.189a.544.544,0,0,0,.516-.37l2.325-6.944a.541.541,0,0,0-.516-.711h-10.76a1.138,1.138,0,0,0-1.08.774l-2.19,6.54A.541.541,0,0,0,1682.371,430.283Z" transform="translate(-1677.606 -422.224)" fill="#331832"/>
          <path id="Path_1029" data-name="Path 1029" d="M1736.255,448.126c0-.264-.3-.371-.57-.371a.76.76,0,0,0-.7.659c0,.4.314.451.58.451A.878.878,0,0,0,1736.255,448.126Z" transform="translate(-1723.652 -444.306)" fill="#daebe8"/>
          <path id="Path_1030" data-name="Path 1030" d="M1650.962,474.86h15.308v.981h-15.628a.331.331,0,0,1-.331-.331h0A.651.651,0,0,1,1650.962,474.86Z" transform="translate(-1650.311 -467.782)" fill="#331832"/>
          <g id="Group_515" data-name="Group 515" transform="translate(5.489)">
            <path id="Path_1031" data-name="Path 1031" d="M1691.379,425.543l-.07-.018a19.143,19.143,0,0,1,.917-2.736,1.554,1.554,0,0,1,.831-.791l.019.07a1.516,1.516,0,0,0-.786.757A19.606,19.606,0,0,0,1691.379,425.543Z" transform="translate(-1691.309 -421.997)" fill="#366f90"/>
          </g>
          <g id="Group_516" data-name="Group 516" transform="translate(3.906 4.29)">
            <path id="Path_1032" data-name="Path 1032" d="M1679.483,456.862v-.073c.367,0,.458-.152.458-.153l.869-2.6.069.023-.872,2.6C1680,456.678,1679.9,456.862,1679.483,456.862Z" transform="translate(-1679.483 -454.037)" fill="#366f90"/>
          </g>
        </g>
        <g id="Group_518" data-name="Group 518" transform="translate(19.7 34.848)">
          <path id="Path_1033" data-name="Path 1033" d="M1708.334,505.364a41.017,41.017,0,0,0-1.268-7.149c-.952-3.481-2.8-8.055-6.179-10.079l.046-.078c3.409,2.04,5.264,6.637,6.22,10.135a41.161,41.161,0,0,1,1.27,7.165Z" transform="translate(-1700.888 -488.058)" fill="#020202"/>
        </g>
        <g id="Group_519" data-name="Group 519" transform="translate(17.927 49.243)">
          <path id="Path_1034" data-name="Path 1034" d="M1689.4,604.833a26.455,26.455,0,0,0-1.75-9.233l.083-.036a26.549,26.549,0,0,1,1.758,9.268Z" transform="translate(-1687.651 -595.564)" fill="#020202"/>
        </g>
        <path id="Path_1035" data-name="Path 1035" d="M1659.453,277.6s-1.24-.638-1.375-1.375-.634-.562-.893-.772.7-2.089.7-2.089l2.762-.723-.6,3.4Z" transform="translate(-1643.299 -266.639)" fill="#331832"/>
        <path id="Path_1036" data-name="Path 1036" d="M1632.671,268.747a1.6,1.6,0,0,0,1.384-.824l.868-1.585.252-.46,1.481-2.706-.487,2.9-.293,1.743-.083.5a.8.8,0,0,0,.579.9l.007,0c.183.372.414,1.115-.505,1.314a3.512,3.512,0,0,1-3.212-1.786Z" transform="translate(-1622.097 -258.434)" fill="#ffb27d"/>
        <path id="Path_1037" data-name="Path 1037" d="M1649.551,283.579c0,.016,0,.032,0,.049a1.862,1.862,0,0,0,.947,1.484l.007,0,.293-1.743a1.5,1.5,0,0,0-.994-.2A.413.413,0,0,0,1649.551,283.579Z" transform="translate(-1636.723 -275.725)" fill="#e1986c"/>
        <path id="Path_1038" data-name="Path 1038" d="M1648.016,245.033c.177-1.871-.909-3.5-2.426-3.648s-2.89,1.257-3.067,3.128.909,3.5,2.426,3.648S1647.839,246.9,1648.016,245.033Z" transform="translate(-1630.622 -239.556)" fill="#ffb27d"/>
        <path id="Path_1039" data-name="Path 1039" d="M1660.64,281.038a5.989,5.989,0,0,1-1.847-.486.919.919,0,0,0,.845,1.075C1660.225,281.719,1660.64,281.038,1660.64,281.038Z" transform="translate(-1644.721 -273.488)" fill="#fff"/>
        <g id="Group_520" data-name="Group 520" transform="translate(14.081 5.062)">
          <path id="Path_1040" data-name="Path 1040" d="M1659.756,265.812a.063.063,0,0,0,.018-.118.68.68,0,0,0-.826.1.063.063,0,0,0-.006.089.069.069,0,0,0,.089.006,1.074,1.074,0,0,1,.686-.087A.062.062,0,0,0,1659.756,265.812Z" transform="translate(-1658.927 -265.6)" fill="#080435"/>
        </g>
        <path id="Path_1041" data-name="Path 1041" d="M1659.958,270.048c-.019.149.053.28.161.294s.21-.1.229-.244-.053-.28-.161-.294S1659.976,269.9,1659.958,270.048Z" transform="translate(-1645.736 -264.178)" fill="#080435"/>
        <path id="Path_1042" data-name="Path 1042" d="M1673.127,272.272a.243.243,0,0,0,.142.3c.107.02.216-.082.245-.229a.243.243,0,0,0-.142-.3C1673.264,272.023,1673.155,272.125,1673.127,272.272Z" transform="translate(-1657.138 -266.116)" fill="#080435"/>
        <path id="Path_1043" data-name="Path 1043" d="M1644.926,230.714a4.835,4.835,0,0,1,3.228,4.89q-.012.189-.031.387a1.949,1.949,0,0,0-1.658,1.567c-.065.434,1.126,1.3,1.218,1.267.689-.232,2.568-1.679,2.479-4.911s-1.105-5.7-4.031-6.073-2.719,1.618-2.719,1.618A2.762,2.762,0,0,0,1644.926,230.714Z" transform="translate(-1631.406 -227.793)" fill="#331832"/>
        <path id="Path_1044" data-name="Path 1044" d="M1630.244,240.211s-.053.027-.139.082a3.157,3.157,0,0,0-1.4,1.845c-.294,1.28.877,2.205.439,3.175s-1.236-.24-1.986-.139-1.255-.292-1.165-1.764.756-4.863,2.493-4.7Z" transform="translate(-1616.312 -237.245)" fill="#331832"/>
        <path id="Path_1045" data-name="Path 1045" d="M1641.175,261.145a.678.678,0,0,0,.965.16.758.758,0,0,0-.06-1.022.678.678,0,0,0-.965-.16A.758.758,0,0,0,1641.175,261.145Z" transform="translate(-1629.27 -255.672)" fill="#ffb27d"/>
        <g id="Group_521" data-name="Group 521" transform="translate(13.777 2.329)">
          <path id="Path_1046" data-name="Path 1046" d="M1660.175,252.366h-.006a.033.033,0,0,1-.027-.039,7.9,7.9,0,0,0-.9-5.356,3.064,3.064,0,0,0-2.555-1.716.035.035,0,0,1-.036-.031.033.033,0,0,1,.031-.036,3.122,3.122,0,0,1,2.616,1.747,7.975,7.975,0,0,1,.907,5.4A.033.033,0,0,1,1660.175,252.366Z" transform="translate(-1656.653 -245.187)" fill="#fff"/>
        </g>
        <g id="Group_522" data-name="Group 522" transform="translate(10.691 1.93)">
          <path id="Path_1047" data-name="Path 1047" d="M1633.849,247.074a.033.033,0,0,1-.031-.022,5.646,5.646,0,0,1,.658-4.48,1.276,1.276,0,0,1,1.506-.2.033.033,0,1,1-.032.058,1.187,1.187,0,0,0-1.425.184,5.56,5.56,0,0,0-.644,4.412.033.033,0,0,1-.02.043Z" transform="translate(-1633.609 -242.209)" fill="#fff"/>
        </g>
        <g id="Group_523" data-name="Group 523" transform="translate(13.523 1.623)">
          <path id="Path_1048" data-name="Path 1048" d="M1658.967,245.2h0a.034.034,0,0,1-.032-.035c0-.04.13-3.989-1.367-4.805a2.881,2.881,0,0,0-2.757-.068.033.033,0,0,1-.046-.011.033.033,0,0,1,.011-.046,2.949,2.949,0,0,1,2.823.066c1.533.836,1.408,4.7,1.4,4.866A.033.033,0,0,1,1658.967,245.2Z" transform="translate(-1654.759 -239.911)" fill="#fff"/>
        </g>
      </g>
      <g id="Group_540" data-name="Group 540" transform="translate(195.777 107.554)">
        <path id="Path_1049" data-name="Path 1049" d="M1857.553,1559.005a12.6,12.6,0,0,1-1.828,4.88c-.876,1.086-3.292,3.237-1.574,3.954,1.372.573,4.015-1.976,4.873-2.61s2.151-1.834,1.865-2.857a16.429,16.429,0,0,1-.4-4.782Z" transform="translate(-1847.461 -1487.092)" fill="#331832"/>
        <path id="Path_1050" data-name="Path 1050" d="M1926.531,1534.3a12.569,12.569,0,0,1,0,5.206c-.441,1.321-1.952,4.171-.09,4.251,1.487.063,3.072-3.238,3.654-4.129s1.375-2.462.747-3.322a16.486,16.486,0,0,1-2.049-4.346Z" transform="translate(-1909.804 -1464.891)" fill="#331832"/>
        <g id="Group_525" data-name="Group 525" transform="translate(0 34.591)">
          <path id="Path_1051" data-name="Path 1051" d="M1823.879,1326.488c-17.813-11.792-16.933-22.122-14.465-26.161,2.867-4.692,7.406-8.4,14.363-10.056a38.827,38.827,0,0,1,5.1-.843,3.552,3.552,0,0,1,3.92,3.61l-.16,6.016h.013c-2.972-.062-11.989.838-14.351,5.606-.491.991,11.5,14.967,11.052,17.475C1828.841,1324.972,1825.621,1327.641,1823.879,1326.488Z" transform="translate(-1808.083 -1289.409)" fill="#764678"/>
        </g>
        <g id="Group_526" data-name="Group 526" transform="translate(5.321 35.433)">
          <path id="Path_1052" data-name="Path 1052" d="M1851.392,1333.7a3.533,3.533,0,0,1-3.562-3.727c.269-4.512,1.113-12.19,3.761-17.992a24.848,24.848,0,0,1,7.1-8.892,39.753,39.753,0,0,1,8.6-5.228,20.536,20.536,0,0,1,9.411-2.148l2.575,1.546c-.04.008,3.727,8.65-3.223,12.5-7.116,3.939-12.343,2.167-15.227,7.768-2.059,4-2.846,9.3-3.107,13.006a3.411,3.411,0,0,1-3.4,3.156Z" transform="translate(-1847.824 -1295.695)" fill="#764678"/>
        </g>
        <g id="Group_527" data-name="Group 527" transform="translate(5.894 42.609)">
          <path id="Path_1053" data-name="Path 1053" d="M1852.214,1370.166l-.109-.007a49.272,49.272,0,0,1,1.544-8.644c1.162-4.219,3.417-9.765,7.561-12.226l.056.094c-4.112,2.443-6.354,7.96-7.511,12.159A49.15,49.15,0,0,0,1852.214,1370.166Z" transform="translate(-1852.105 -1349.288)" fill="#020202"/>
        </g>
        <g id="Group_528" data-name="Group 528" transform="translate(14.973 59.973)">
          <path id="Path_1054" data-name="Path 1054" d="M1920.02,1490.16h-.11a31.825,31.825,0,0,1,2.137-11.181l.1.043A31.72,31.72,0,0,0,1920.02,1490.16Z" transform="translate(-1919.91 -1478.978)" fill="#020202"/>
        </g>
        <path id="Path_1055" data-name="Path 1055" d="M1880.383,1158.683c-.567.733-6.106,7.041-6.177,14l5.165-1.045,3.605-8.865Z" transform="translate(-1865.353 -1141.595)" fill="#ffb27d"/>
        <path id="Path_1056" data-name="Path 1056" d="M1916.276,1123.685s-2.21-5.849-9.763-5.444-12.859,3.385-13.955,24.464c0,0,10.424-.593,22.341,6.423,2.006,1.181,5.139.943,5.267-1.382C1920.422,1143.117,1919.47,1134.274,1916.276,1123.685Z" transform="translate(-1881.247 -1106.552)" fill="#6da49a"/>
        <path id="Path_1057" data-name="Path 1057" d="M1933.286,1123.855l-6.637,2.1s-13.741,1.609-17.4,1.021a5.96,5.96,0,0,1-4.709-3.484,19.779,19.779,0,0,1,10.421-5.733,18.514,18.514,0,0,1,1.93-.274,17.036,17.036,0,0,1,3.3-.086C1930.93,1118.528,1933.286,1123.855,1933.286,1123.855Z" transform="translate(-1891.621 -1105.797)" fill="#6da49a"/>
        <path id="Path_1058" data-name="Path 1058" d="M2074.5,1163.9c.355.792-1.2,1.534-3.105,2.24s-3.606.849-3.8.318,1.2-1.534,3.105-2.24S2074.266,1163.385,2074.5,1163.9Z" transform="translate(-2032.832 -1145.841)" fill="#331832"/>
        <g id="Group_529" data-name="Group 529" transform="translate(18.428 18.386)">
          <path id="Path_1059" data-name="Path 1059" d="M1950.058,1188.257a5.223,5.223,0,0,1-3.07-1.453,4.678,4.678,0,0,1-1.026-4.734l1.69-.673c.141-.415,2.907,1.616,2.9,1.614.013.007,1.371.628,6.663-1.156,3.684-1.242,5.779-3.469,6.4-6.81a7.36,7.36,0,0,0-.523-4.467c-.023-.088.454-1.186,2.421-1.836,2.124-.7,2.9-.155,2.9-.155a16.49,16.49,0,0,1,.307,7.415c-.682,3.648-2.948,8.487-9.872,10.82C1955.073,1188.094,1952.187,1188.573,1950.058,1188.257Z" transform="translate(-1945.716 -1168.383)" fill="#ffb27d"/>
        </g>
        <g id="Group_532" data-name="Group 532" transform="translate(3.572 28.427)">
          <path id="Path_1060" data-name="Path 1060" d="M1858.427,1253.951l-13.865-.379a.674.674,0,0,1-.627-.476l-2.646-8.684a.67.67,0,0,1,.664-.863l13.334.364a1.411,1.411,0,0,1,1.313,1l2.492,8.178A.67.67,0,0,1,1858.427,1253.951Z" transform="translate(-1840.389 -1243.525)" fill="#8fb3e3"/>
          <path id="Path_1061" data-name="Path 1061" d="M1851.927,1253.774l-13.865-.379a.674.674,0,0,1-.627-.476l-2.646-8.684a.67.67,0,0,1,.664-.863l13.334.364a1.411,1.411,0,0,1,1.313,1l2.492,8.178A.67.67,0,0,1,1851.927,1253.774Z" transform="translate(-1834.759 -1243.372)" fill="#8fb3e3"/>
          <path id="Path_1062" data-name="Path 1062" d="M1891.493,1276.985c.009-.327.39-.45.718-.441a.943.943,0,0,1,.841.84c-.017.494-.405.548-.734.539A1.089,1.089,0,0,1,1891.493,1276.985Z" transform="translate(-1883.896 -1272.102)" fill="#daebe8"/>
          <path id="Path_1063" data-name="Path 1063" d="M1878.382,1309.662l-18.974-.518-.033,1.216,19.368.529a.408.408,0,0,0,.419-.4v-.006A.8.8,0,0,0,1878.382,1309.662Z" transform="translate(-1856.079 -1300.338)" fill="#8fb3e3"/>
          <g id="Group_530" data-name="Group 530" transform="translate(14.351 0.331)">
            <path id="Path_1064" data-name="Path 1064" d="M1943.922,1250.292a24.286,24.286,0,0,0-1.036-3.4,1.878,1.878,0,0,0-.949-.964l.026-.086a1.927,1.927,0,0,1,1,1.009,23.708,23.708,0,0,1,1.043,3.421Z" transform="translate(-1941.938 -1245.841)" fill="#764678"/>
          </g>
          <g id="Group_531" data-name="Group 531" transform="translate(16.628 5.715)">
            <path id="Path_1065" data-name="Path 1065" d="M1960.579,1289.6c-.514-.014-.636-.245-.641-.255l-1-3.264.086-.026.992,3.257h0s.112.186.56.2Z" transform="translate(-1958.943 -1286.053)" fill="#764678"/>
          </g>
        </g>
        <g id="Group_533" data-name="Group 533" transform="translate(35.812 30.538)" opacity="0.3">
          <path id="Path_1066" data-name="Path 1066" d="M2076.016,1261.313a.462.462,0,0,1-.294-.1c-.306-.245-.2-.874.234-1.43a1.612,1.612,0,0,1,.961-.646.486.486,0,0,1,.368.092c.306.246.2.874-.234,1.43h0a1.612,1.612,0,0,1-.962.646A.639.639,0,0,1,2076.016,1261.313Zm.976-2a.471.471,0,0,0-.054,0,1.453,1.453,0,0,0-.84.579c-.364.462-.484,1-.263,1.178a.309.309,0,0,0,.235.053,1.454,1.454,0,0,0,.841-.579h0c.363-.462.484-1,.263-1.178A.28.28,0,0,0,2076.992,1259.316Z" transform="translate(-2075.545 -1259.136)" fill="#ec865c"/>
        </g>
        <path id="Path_1067" data-name="Path 1067" d="M1984.858,1071.806l-1.137-2.006-.331-.584-1.947-3.434.651,3.7.391,2.219.124.7c.084.477-.182.639-.443,1.127-.106.2-.794,1.405.337,1.635,1.409.287,3.624-1.1,4.29-2.424C1986.786,1072.738,1985.226,1072.454,1984.858,1071.806Z" transform="translate(-1958.231 -1061.133)" fill="#ffb27d"/>
        <g id="Group_539" data-name="Group 539" transform="translate(18.053)">
          <path id="Path_1068" data-name="Path 1068" d="M1957.247,1060.248a4.954,4.954,0,0,0,.439,2.01c.477,1.067,1.013-1.93,1.013-1.93Z" transform="translate(-1955.327 -1056.34)" fill="#5c305d"/>
          <ellipse id="Ellipse_17" data-name="Ellipse 17" cx="3.351" cy="4.041" rx="3.351" ry="4.041" transform="translate(1.953 2.243) rotate(-4.857)" fill="#ffb27d"/>
          <path id="Path_1069" data-name="Path 1069" d="M1951.72,1035.617l-1.62.182a1.18,1.18,0,0,1-.969-.331c-.436-.437-.884-.613-2.349-.234a3.181,3.181,0,0,1-3.753-1.3,1.144,1.144,0,0,1,1.429-1.571c1.044.271.385-.81,1.262-1.131,1.638-.6,2.24.632,3.614.287,1.8-.452,5.351.215,4.509,3.745Z" transform="translate(-1942.913 -1031.063)" fill="#331832"/>
          <g id="Group_534" data-name="Group 534" transform="translate(5.38 5.683)">
            <path id="Path_1070" data-name="Path 1070" d="M1983.141,1073.682a.069.069,0,0,1-.042-.044.068.068,0,0,1,.045-.085.736.736,0,0,1,.86.268.069.069,0,0,1-.01.1.075.075,0,0,1-.1-.01,1.164,1.164,0,0,0-.714-.223A.068.068,0,0,1,1983.141,1073.682Z" transform="translate(-1983.096 -1073.507)" fill="#080435"/>
          </g>
          <path id="Path_1071" data-name="Path 1071" d="M1984.216,1078.733c-.008.162-.11.288-.228.282s-.206-.142-.2-.3.11-.288.228-.282S1984.224,1078.571,1984.216,1078.733Z" transform="translate(-1978.317 -1072.087)" fill="#080435"/>
          <g id="Group_535" data-name="Group 535" transform="translate(2.872 5.886)">
            <path id="Path_1072" data-name="Path 1072" d="M1964.416,1075.332a.049.049,0,0,1-.043-.025.082.082,0,0,1,.006-.1.476.476,0,0,1,.693-.071.081.081,0,0,1,.022.093.05.05,0,0,1-.071.026.712.712,0,0,0-.576.058A.045.045,0,0,1,1964.416,1075.332Z" transform="translate(-1964.36 -1075.02)" fill="#080435"/>
          </g>
          <path id="Path_1073" data-name="Path 1073" d="M1967.661,1080.053a.263.263,0,0,1-.1.348c-.111.039-.245-.053-.3-.206a.263.263,0,0,1,.1-.348C1967.473,1079.808,1967.607,1079.9,1967.661,1080.053Z" transform="translate(-1963.98 -1073.308)" fill="#080435"/>
          <path id="Path_1074" data-name="Path 1074" d="M1997.918,1061.8s-.578,2.6-2.092,3.113c0,0,.861-2.074-2.023-2.592A8.624,8.624,0,0,1,1997.918,1061.8Z" transform="translate(-1986.989 -1057.596)" fill="#5c305d"/>
          <path id="Path_1075" data-name="Path 1075" d="M2002.883,1068.274a.656.656,0,1,1,.058-.976A.694.694,0,0,1,2002.883,1068.274Z" transform="translate(-1993.856 -1062.293)" fill="#ffb27d"/>
          <path id="Path_1076" data-name="Path 1076" d="M1968.1,1066.268s.645,1.936.324,2.4-2.949,1.207-4.3,1h0a2.65,2.65,0,0,0,2.7,2.141,3.85,3.85,0,0,0,1.271-.282h0a2.651,2.651,0,0,0,1.786-1.773,7.726,7.726,0,0,0-.592-1.711,1.75,1.75,0,0,1,.1-1.435A2.587,2.587,0,0,0,1968.1,1066.268Z" transform="translate(-1961.286 -1061.547)" fill="#5c305d"/>
          <path id="Path_1077" data-name="Path 1077" d="M1970.194,1094.018a6.878,6.878,0,0,0,2.172-.3,1.054,1.054,0,0,1-1.111,1.109C1970.573,1094.852,1970.194,1094.018,1970.194,1094.018Z" transform="translate(-1966.541 -1085.33)" fill="#fff"/>
          <g id="Group_536" data-name="Group 536" transform="translate(1.667 0.554)">
            <path id="Path_1078" data-name="Path 1078" d="M1955.383,1035.754l-.017-.09a.419.419,0,0,0,.4-.45l.091-.011A.513.513,0,0,1,1955.383,1035.754Z" transform="translate(-1955.366 -1035.203)" fill="#331832"/>
          </g>
          <g id="Group_537" data-name="Group 537" transform="translate(0.671 1.682)">
            <path id="Path_1079" data-name="Path 1079" d="M1950.478,1045.706c-.089-.006-2.173-.159-2.489-1.2a.728.728,0,0,1,.027-.662c.174-.232.563-.226.908-.221h.148v.046h-.149c-.333,0-.711-.01-.871.2a.69.69,0,0,0-.019.621c.307,1.007,2.427,1.162,2.448,1.164Z" transform="translate(-1947.927 -1043.626)" fill="#fff"/>
          </g>
          <g id="Group_538" data-name="Group 538" transform="translate(4.161 0.402)">
            <path id="Path_1080" data-name="Path 1080" d="M1975.693,1034.579a2.961,2.961,0,0,1-1.7-.479l.028-.036a3.314,3.314,0,0,0,3.074.209l.016.043A4.121,4.121,0,0,1,1975.693,1034.579Z" transform="translate(-1973.993 -1034.063)" fill="#fff"/>
          </g>
        </g>
      </g>
    </g>
  </g>
</svg>
